<svg width="9" height="24" viewBox="0 0 9 24" fill="none" xmlns="http://www.w3.org/2000/svg">
<path d="M8.10533 22.1368C8.16965 22.2381 8.22067 22.3584 8.25548 22.4909C8.29028 22.6233 8.3082 22.7652 8.3082 22.9085C8.3082 23.0519 8.29028 23.1938 8.25548 23.3262C8.22067 23.4586 8.16965 23.579 8.10533 23.6803C8.04101 23.7817 7.96465 23.8621 7.88061 23.9169C7.79658 23.9718 7.7065 24 7.61554 24C7.52458 24 7.43451 23.9718 7.35047 23.9169C7.26644 23.8621 7.19008 23.7817 7.12576 23.6803L0.203034 12.7718C0.138669 12.6705 0.0876081 12.5502 0.05277 12.4177C0.0179319 12.2853 0 12.1434 0 12C0 11.8566 0.0179319 11.7147 0.05277 11.5823C0.0876081 11.4498 0.138669 11.3295 0.203034 11.2282L7.12576 0.319681C7.25566 0.114993 7.43184 -5.70621e-09 7.61554 0C7.79925 5.70621e-09 7.97543 0.114993 8.10533 0.319681C8.23522 0.52437 8.3082 0.801987 8.3082 1.09146C8.3082 1.38093 8.23522 1.65855 8.10533 1.86324L1.67152 12L8.10533 22.1368Z" fill="#52C5CF"/>
</svg>
